# xmcd
#
# Track frame offsets:
#	187
#	24650
#	44517
#	62180
#	81927
#	104585
#	128875
#	148027
#	163945
#
# Disc length: 2466 seconds
#
# Revision: 1
# Processed by: cddbd v1.5PL3 Copyright (c) Steve Scherf et al.
# Submitted via: CDex 1.50Beta5
#
DISCID=8509a009
DTITLE=高岡早紀 - Romancero
DYEAR=1990
DGENRE=Pop
TTITLE0=Dancing in the SUNSET
TTITLE1=セザンヌ美術館
TTITLE2=水晶の夜
TTITLE3=ジプシーを踊ろう
TTITLE4=哀しみのベニス
TTITLE5=砂浜のバレリーナ
TTITLE6=フレスコ画の少女
TTITLE7=プリマベーラ
TTITLE8=バラ色の館
EXTD=
EXTT0=
EXTT1=
EXTT2=
EXTT3=
EXTT4=
EXTT5=
EXTT6=
EXTT7=
EXTT8=
PLAYORDER=
